<svg xmlns="http://www.w3.org/2000/svg" version="1.1" width="32" height="32"><path d="M2.14359354 12L2.14359354 24L16 32L29.85640646 24L29.85640646 8L28.12435565 7L16 0L2.14359354 8Z" fill="pink"/><path d="M2.14359354 12L2.14359354 24L16 32L16 24L9.07179677 20L9.07179677 12L2.14359354 8ZM12.53589838 18L16 20L16 16L14.26794919 15L12.53589838 14ZM22.92820323 12L22.92820323 20L19.46410162 18L19.46410162 14L17.73205081 13L16 12L16 8L21.19615242 11Z" fill="rgba(0,0,0,0.15)"/><path d="M14.26794919 13L12.53589838 14L12.53589838 18L9.07179677 20L9.07179677 12L16 8L16 12ZM29.85640646 12L29.85640646 24L16 32L16 24L22.92820323 20L22.92820323 12L29.85640646 8ZM19.46410162 18L16 20L16 16L19.46410162 14Z" fill="rgba(0,0,0,0.4)"/></svg>